<mxfile host="app.diagrams.net" agent="Mozilla/5.0 (Macintosh; Intel Mac OS X 10_15_7) AppleWebKit/537.36 (KHTML, like Gecko) Chrome/137.0.0.0 Safari/537.36" version="27.1.4">
  <diagram name="PÃ¡gina-1" id="NMruJkIku_sLH3NQZ0nU">
    <mxGraphModel dx="2425" dy="836" grid="1" gridSize="10" guides="1" tooltips="1" connect="1" arrows="1" fold="1" page="1" pageScale="1" pageWidth="2339" pageHeight="3300" math="0" shadow="0">
      <root>
        <mxCell id="0" />
        <mxCell id="1" parent="0" />
        <mxCell id="jm6-lyp_4xsyJlH1QK8w-4" value="AWS Account" style="points=[[0,0],[0.25,0],[0.5,0],[0.75,0],[1,0],[1,0.25],[1,0.5],[1,0.75],[1,1],[0.75,1],[0.5,1],[0.25,1],[0,1],[0,0.75],[0,0.5],[0,0.25]];outlineConnect=0;gradientColor=none;html=1;whiteSpace=wrap;fontSize=12;fontStyle=0;container=1;pointerEvents=0;collapsible=0;recursiveResize=0;shape=mxgraph.aws4.group;grIcon=mxgraph.aws4.group_account;strokeColor=#CD2264;fillColor=none;verticalAlign=top;align=left;spacingLeft=30;fontColor=#CD2264;dashed=0;" vertex="1" parent="1">
          <mxGeometry x="300" y="50" width="1520" height="760" as="geometry" />
        </mxCell>
        <mxCell id="jm6-lyp_4xsyJlH1QK8w-46" value="VPC" style="points=[[0,0],[0.25,0],[0.5,0],[0.75,0],[1,0],[1,0.25],[1,0.5],[1,0.75],[1,1],[0.75,1],[0.5,1],[0.25,1],[0,1],[0,0.75],[0,0.5],[0,0.25]];outlineConnect=0;gradientColor=none;html=1;whiteSpace=wrap;fontSize=12;fontStyle=0;container=1;pointerEvents=0;collapsible=0;recursiveResize=0;shape=mxgraph.aws4.group;grIcon=mxgraph.aws4.group_vpc2;strokeColor=#8C4FFF;fillColor=none;verticalAlign=top;align=left;spacingLeft=30;fontColor=#AAB7B8;dashed=0;" vertex="1" parent="jm6-lyp_4xsyJlH1QK8w-4">
          <mxGeometry x="740" y="318" width="530" height="412" as="geometry" />
        </mxCell>
        <mxCell id="jm6-lyp_4xsyJlH1QK8w-52" value="Payments" style="sketch=0;points=[[0,0,0],[0.25,0,0],[0.5,0,0],[0.75,0,0],[1,0,0],[0,1,0],[0.25,1,0],[0.5,1,0],[0.75,1,0],[1,1,0],[0,0.25,0],[0,0.5,0],[0,0.75,0],[1,0.25,0],[1,0.5,0],[1,0.75,0]];outlineConnect=0;fontColor=#232F3E;fillColor=#ED7100;strokeColor=#ffffff;dashed=0;verticalLabelPosition=bottom;verticalAlign=top;align=center;html=1;fontSize=12;fontStyle=0;aspect=fixed;shape=mxgraph.aws4.resourceIcon;resIcon=mxgraph.aws4.lambda;" vertex="1" parent="jm6-lyp_4xsyJlH1QK8w-46">
          <mxGeometry x="60" y="72" width="78" height="78" as="geometry" />
        </mxCell>
        <mxCell id="jm6-lyp_4xsyJlH1QK8w-83" value="Public subnet" style="points=[[0,0],[0.25,0],[0.5,0],[0.75,0],[1,0],[1,0.25],[1,0.5],[1,0.75],[1,1],[0.75,1],[0.5,1],[0.25,1],[0,1],[0,0.75],[0,0.5],[0,0.25]];outlineConnect=0;gradientColor=none;html=1;whiteSpace=wrap;fontSize=12;fontStyle=0;container=1;pointerEvents=0;collapsible=0;recursiveResize=0;shape=mxgraph.aws4.group;grIcon=mxgraph.aws4.group_security_group;grStroke=0;strokeColor=#7AA116;fillColor=#F2F6E8;verticalAlign=top;align=left;spacingLeft=30;fontColor=#248814;dashed=0;" vertex="1" parent="jm6-lyp_4xsyJlH1QK8w-46">
          <mxGeometry x="370" y="38" width="130" height="130" as="geometry" />
        </mxCell>
        <mxCell id="jm6-lyp_4xsyJlH1QK8w-85" value="" style="sketch=0;outlineConnect=0;fontColor=#232F3E;gradientColor=none;fillColor=#8C4FFF;strokeColor=none;dashed=0;verticalLabelPosition=bottom;verticalAlign=top;align=center;html=1;fontSize=12;fontStyle=0;aspect=fixed;pointerEvents=1;shape=mxgraph.aws4.nat_gateway;" vertex="1" parent="jm6-lyp_4xsyJlH1QK8w-83">
          <mxGeometry x="26" y="36" width="78" height="78" as="geometry" />
        </mxCell>
        <mxCell id="jm6-lyp_4xsyJlH1QK8w-91" value="Availability Zone" style="fillColor=none;strokeColor=#147EBA;dashed=1;verticalAlign=top;fontStyle=0;fontColor=#147EBA;whiteSpace=wrap;html=1;" vertex="1" parent="jm6-lyp_4xsyJlH1QK8w-46">
          <mxGeometry x="170" y="12" width="340" height="179" as="geometry" />
        </mxCell>
        <mxCell id="jm6-lyp_4xsyJlH1QK8w-78" value="Private subnet" style="points=[[0,0],[0.25,0],[0.5,0],[0.75,0],[1,0],[1,0.25],[1,0.5],[1,0.75],[1,1],[0.75,1],[0.5,1],[0.25,1],[0,1],[0,0.75],[0,0.5],[0,0.25]];outlineConnect=0;gradientColor=none;html=1;whiteSpace=wrap;fontSize=12;fontStyle=0;container=1;pointerEvents=0;collapsible=0;recursiveResize=0;shape=mxgraph.aws4.group;grIcon=mxgraph.aws4.group_security_group;grStroke=0;strokeColor=#00A4A6;fillColor=#E6F6F7;verticalAlign=top;align=left;spacingLeft=30;fontColor=#147EBA;dashed=0;" vertex="1" parent="jm6-lyp_4xsyJlH1QK8w-46">
          <mxGeometry x="185" y="45" width="130" height="130" as="geometry" />
        </mxCell>
        <mxCell id="jm6-lyp_4xsyJlH1QK8w-95" value="Public subnet" style="points=[[0,0],[0.25,0],[0.5,0],[0.75,0],[1,0],[1,0.25],[1,0.5],[1,0.75],[1,1],[0.75,1],[0.5,1],[0.25,1],[0,1],[0,0.75],[0,0.5],[0,0.25]];outlineConnect=0;gradientColor=none;html=1;whiteSpace=wrap;fontSize=12;fontStyle=0;container=1;pointerEvents=0;collapsible=0;recursiveResize=0;shape=mxgraph.aws4.group;grIcon=mxgraph.aws4.group_security_group;grStroke=0;strokeColor=#7AA116;fillColor=#F2F6E8;verticalAlign=top;align=left;spacingLeft=30;fontColor=#248814;dashed=0;" vertex="1" parent="jm6-lyp_4xsyJlH1QK8w-46">
          <mxGeometry x="370" y="238" width="130" height="130" as="geometry" />
        </mxCell>
        <mxCell id="jm6-lyp_4xsyJlH1QK8w-96" value="" style="sketch=0;outlineConnect=0;fontColor=#232F3E;gradientColor=none;fillColor=#8C4FFF;strokeColor=none;dashed=0;verticalLabelPosition=bottom;verticalAlign=top;align=center;html=1;fontSize=12;fontStyle=0;aspect=fixed;pointerEvents=1;shape=mxgraph.aws4.nat_gateway;" vertex="1" parent="jm6-lyp_4xsyJlH1QK8w-95">
          <mxGeometry x="26" y="36" width="78" height="78" as="geometry" />
        </mxCell>
        <mxCell id="jm6-lyp_4xsyJlH1QK8w-97" value="Availability Zone" style="fillColor=none;strokeColor=#147EBA;dashed=1;verticalAlign=top;fontStyle=0;fontColor=#147EBA;whiteSpace=wrap;html=1;" vertex="1" parent="jm6-lyp_4xsyJlH1QK8w-46">
          <mxGeometry x="170" y="212" width="340" height="179" as="geometry" />
        </mxCell>
        <mxCell id="jm6-lyp_4xsyJlH1QK8w-98" value="Private subnet" style="points=[[0,0],[0.25,0],[0.5,0],[0.75,0],[1,0],[1,0.25],[1,0.5],[1,0.75],[1,1],[0.75,1],[0.5,1],[0.25,1],[0,1],[0,0.75],[0,0.5],[0,0.25]];outlineConnect=0;gradientColor=none;html=1;whiteSpace=wrap;fontSize=12;fontStyle=0;container=1;pointerEvents=0;collapsible=0;recursiveResize=0;shape=mxgraph.aws4.group;grIcon=mxgraph.aws4.group_security_group;grStroke=0;strokeColor=#00A4A6;fillColor=#E6F6F7;verticalAlign=top;align=left;spacingLeft=30;fontColor=#147EBA;dashed=0;" vertex="1" parent="jm6-lyp_4xsyJlH1QK8w-46">
          <mxGeometry x="185" y="245" width="130" height="130" as="geometry" />
        </mxCell>
        <mxCell id="jm6-lyp_4xsyJlH1QK8w-47" value="VPC" style="points=[[0,0],[0.25,0],[0.5,0],[0.75,0],[1,0],[1,0.25],[1,0.5],[1,0.75],[1,1],[0.75,1],[0.5,1],[0.25,1],[0,1],[0,0.75],[0,0.5],[0,0.25]];outlineConnect=0;gradientColor=none;html=1;whiteSpace=wrap;fontSize=12;fontStyle=0;container=1;pointerEvents=0;collapsible=0;recursiveResize=0;shape=mxgraph.aws4.group;grIcon=mxgraph.aws4.group_vpc2;strokeColor=#8C4FFF;fillColor=none;verticalAlign=top;align=left;spacingLeft=30;fontColor=#AAB7B8;dashed=0;" vertex="1" parent="jm6-lyp_4xsyJlH1QK8w-4">
          <mxGeometry x="740" y="30" width="630" height="262" as="geometry" />
        </mxCell>
        <mxCell id="jm6-lyp_4xsyJlH1QK8w-88" value="Availability Zone" style="fillColor=none;strokeColor=#147EBA;dashed=1;verticalAlign=top;fontStyle=0;fontColor=#147EBA;whiteSpace=wrap;html=1;" vertex="1" parent="jm6-lyp_4xsyJlH1QK8w-47">
          <mxGeometry x="155" y="27" width="160" height="176" as="geometry" />
        </mxCell>
        <mxCell id="jm6-lyp_4xsyJlH1QK8w-87" value="Availability Zone" style="fillColor=none;strokeColor=#147EBA;dashed=1;verticalAlign=top;fontStyle=0;fontColor=#147EBA;whiteSpace=wrap;html=1;" vertex="1" parent="jm6-lyp_4xsyJlH1QK8w-47">
          <mxGeometry x="325" y="27" width="160" height="176" as="geometry" />
        </mxCell>
        <mxCell id="jm6-lyp_4xsyJlH1QK8w-51" value="createOrder" style="sketch=0;points=[[0,0,0],[0.25,0,0],[0.5,0,0],[0.75,0,0],[1,0,0],[0,1,0],[0.25,1,0],[0.5,1,0],[0.75,1,0],[1,1,0],[0,0.25,0],[0,0.5,0],[0,0.75,0],[1,0.25,0],[1,0.5,0],[1,0.75,0]];outlineConnect=0;fontColor=#232F3E;fillColor=#ED7100;strokeColor=#ffffff;dashed=0;verticalLabelPosition=bottom;verticalAlign=top;align=center;html=1;fontSize=12;fontStyle=0;aspect=fixed;shape=mxgraph.aws4.resourceIcon;resIcon=mxgraph.aws4.lambda;" vertex="1" parent="jm6-lyp_4xsyJlH1QK8w-47">
          <mxGeometry x="60" y="50" width="78" height="78" as="geometry" />
        </mxCell>
        <mxCell id="jm6-lyp_4xsyJlH1QK8w-55" value="Private subnet" style="points=[[0,0],[0.25,0],[0.5,0],[0.75,0],[1,0],[1,0.25],[1,0.5],[1,0.75],[1,1],[0.75,1],[0.5,1],[0.25,1],[0,1],[0,0.75],[0,0.5],[0,0.25]];outlineConnect=0;gradientColor=none;html=1;whiteSpace=wrap;fontSize=12;fontStyle=0;container=1;pointerEvents=0;collapsible=0;recursiveResize=0;shape=mxgraph.aws4.group;grIcon=mxgraph.aws4.group_security_group;grStroke=0;strokeColor=#00A4A6;fillColor=#E6F6F7;verticalAlign=top;align=left;spacingLeft=30;fontColor=#147EBA;dashed=0;" vertex="1" parent="jm6-lyp_4xsyJlH1QK8w-47">
          <mxGeometry x="170" y="59" width="130" height="130" as="geometry" />
        </mxCell>
        <mxCell id="jm6-lyp_4xsyJlH1QK8w-100" value="Private subnet" style="points=[[0,0],[0.25,0],[0.5,0],[0.75,0],[1,0],[1,0.25],[1,0.5],[1,0.75],[1,1],[0.75,1],[0.5,1],[0.25,1],[0,1],[0,0.75],[0,0.5],[0,0.25]];outlineConnect=0;gradientColor=none;html=1;whiteSpace=wrap;fontSize=12;fontStyle=0;container=1;pointerEvents=0;collapsible=0;recursiveResize=0;shape=mxgraph.aws4.group;grIcon=mxgraph.aws4.group_security_group;grStroke=0;strokeColor=#00A4A6;fillColor=#E6F6F7;verticalAlign=top;align=left;spacingLeft=30;fontColor=#147EBA;dashed=0;" vertex="1" parent="jm6-lyp_4xsyJlH1QK8w-47">
          <mxGeometry x="340" y="59" width="130" height="130" as="geometry" />
        </mxCell>
        <mxCell id="jm6-lyp_4xsyJlH1QK8w-99" value="" style="sketch=0;outlineConnect=0;fontColor=#232F3E;gradientColor=none;fillColor=#8C4FFF;strokeColor=none;dashed=0;verticalLabelPosition=bottom;verticalAlign=top;align=center;html=1;fontSize=12;fontStyle=0;aspect=fixed;pointerEvents=1;shape=mxgraph.aws4.endpoints;" vertex="1" parent="jm6-lyp_4xsyJlH1QK8w-47">
          <mxGeometry x="530" y="76" width="78" height="78" as="geometry" />
        </mxCell>
        <mxCell id="jm6-lyp_4xsyJlH1QK8w-26" value="api.venluxury.com" style="sketch=0;points=[[0,0,0],[0.25,0,0],[0.5,0,0],[0.75,0,0],[1,0,0],[0,1,0],[0.25,1,0],[0.5,1,0],[0.75,1,0],[1,1,0],[0,0.25,0],[0,0.5,0],[0,0.75,0],[1,0.25,0],[1,0.5,0],[1,0.75,0]];outlineConnect=0;fontColor=#232F3E;fillColor=#8C4FFF;strokeColor=#ffffff;dashed=0;verticalLabelPosition=bottom;verticalAlign=top;align=center;html=1;fontSize=12;fontStyle=0;aspect=fixed;shape=mxgraph.aws4.resourceIcon;resIcon=mxgraph.aws4.route_53;" vertex="1" parent="jm6-lyp_4xsyJlH1QK8w-4">
          <mxGeometry x="40" y="240" width="78" height="78" as="geometry" />
        </mxCell>
        <mxCell id="jm6-lyp_4xsyJlH1QK8w-28" value="Cloudfront" style="sketch=0;points=[[0,0,0],[0.25,0,0],[0.5,0,0],[0.75,0,0],[1,0,0],[0,1,0],[0.25,1,0],[0.5,1,0],[0.75,1,0],[1,1,0],[0,0.25,0],[0,0.5,0],[0,0.75,0],[1,0.25,0],[1,0.5,0],[1,0.75,0]];outlineConnect=0;fontColor=#232F3E;fillColor=#8C4FFF;strokeColor=#ffffff;dashed=0;verticalLabelPosition=bottom;verticalAlign=top;align=center;html=1;fontSize=12;fontStyle=0;aspect=fixed;shape=mxgraph.aws4.resourceIcon;resIcon=mxgraph.aws4.cloudfront;" vertex="1" parent="jm6-lyp_4xsyJlH1QK8w-4">
          <mxGeometry x="200" y="240" width="78" height="78" as="geometry" />
        </mxCell>
        <mxCell id="jm6-lyp_4xsyJlH1QK8w-29" style="edgeStyle=orthogonalEdgeStyle;rounded=0;orthogonalLoop=1;jettySize=auto;html=1;entryX=0;entryY=0.5;entryDx=0;entryDy=0;entryPerimeter=0;flowAnimation=1;" edge="1" parent="jm6-lyp_4xsyJlH1QK8w-4" source="jm6-lyp_4xsyJlH1QK8w-26" target="jm6-lyp_4xsyJlH1QK8w-28">
          <mxGeometry relative="1" as="geometry" />
        </mxCell>
        <mxCell id="jm6-lyp_4xsyJlH1QK8w-33" value="userPool" style="sketch=0;points=[[0,0,0],[0.25,0,0],[0.5,0,0],[0.75,0,0],[1,0,0],[0,1,0],[0.25,1,0],[0.5,1,0],[0.75,1,0],[1,1,0],[0,0.25,0],[0,0.5,0],[0,0.75,0],[1,0.25,0],[1,0.5,0],[1,0.75,0]];outlineConnect=0;fontColor=#232F3E;fillColor=#DD344C;strokeColor=#ffffff;dashed=0;verticalLabelPosition=bottom;verticalAlign=top;align=center;html=1;fontSize=12;fontStyle=0;aspect=fixed;shape=mxgraph.aws4.resourceIcon;resIcon=mxgraph.aws4.cognito;" vertex="1" parent="jm6-lyp_4xsyJlH1QK8w-4">
          <mxGeometry x="50" y="50" width="78" height="78" as="geometry" />
        </mxCell>
        <mxCell id="jm6-lyp_4xsyJlH1QK8w-37" value="REST API" style="sketch=0;points=[[0,0,0],[0.25,0,0],[0.5,0,0],[0.75,0,0],[1,0,0],[0,1,0],[0.25,1,0],[0.5,1,0],[0.75,1,0],[1,1,0],[0,0.25,0],[0,0.5,0],[0,0.75,0],[1,0.25,0],[1,0.5,0],[1,0.75,0]];outlineConnect=0;fontColor=#232F3E;fillColor=#8C4FFF;strokeColor=#ffffff;dashed=0;verticalLabelPosition=bottom;verticalAlign=top;align=center;html=1;fontSize=12;fontStyle=0;aspect=fixed;shape=mxgraph.aws4.resourceIcon;resIcon=mxgraph.aws4.api_gateway;" vertex="1" parent="jm6-lyp_4xsyJlH1QK8w-4">
          <mxGeometry x="490" y="240" width="78" height="78" as="geometry" />
        </mxCell>
        <mxCell id="jm6-lyp_4xsyJlH1QK8w-38" value="Congito Authorizer" style="sketch=0;points=[[0,0,0],[0.25,0,0],[0.5,0,0],[0.75,0,0],[1,0,0],[0,1,0],[0.25,1,0],[0.5,1,0],[0.75,1,0],[1,1,0],[0,0.25,0],[0,0.5,0],[0,0.75,0],[1,0.25,0],[1,0.5,0],[1,0.75,0]];outlineConnect=0;fontColor=#232F3E;fillColor=#E7157B;strokeColor=#ffffff;dashed=0;verticalLabelPosition=bottom;verticalAlign=top;align=center;html=1;fontSize=12;fontStyle=0;aspect=fixed;shape=mxgraph.aws4.resourceIcon;resIcon=mxgraph.aws4.api_gateway;" vertex="1" parent="jm6-lyp_4xsyJlH1QK8w-4">
          <mxGeometry x="490" y="370" width="78" height="78" as="geometry" />
        </mxCell>
        <mxCell id="jm6-lyp_4xsyJlH1QK8w-39" value="WAF" style="sketch=0;points=[[0,0,0],[0.25,0,0],[0.5,0,0],[0.75,0,0],[1,0,0],[0,1,0],[0.25,1,0],[0.5,1,0],[0.75,1,0],[1,1,0],[0,0.25,0],[0,0.5,0],[0,0.75,0],[1,0.25,0],[1,0.5,0],[1,0.75,0]];outlineConnect=0;fontColor=#232F3E;fillColor=#DD344C;strokeColor=#ffffff;dashed=0;verticalLabelPosition=bottom;verticalAlign=top;align=center;html=1;fontSize=12;fontStyle=0;aspect=fixed;shape=mxgraph.aws4.resourceIcon;resIcon=mxgraph.aws4.waf;" vertex="1" parent="jm6-lyp_4xsyJlH1QK8w-4">
          <mxGeometry x="340" y="240" width="78" height="78" as="geometry" />
        </mxCell>
        <mxCell id="jm6-lyp_4xsyJlH1QK8w-40" style="edgeStyle=orthogonalEdgeStyle;rounded=0;orthogonalLoop=1;jettySize=auto;html=1;entryX=0;entryY=0.5;entryDx=0;entryDy=0;entryPerimeter=0;flowAnimation=1;" edge="1" parent="jm6-lyp_4xsyJlH1QK8w-4" source="jm6-lyp_4xsyJlH1QK8w-28" target="jm6-lyp_4xsyJlH1QK8w-39">
          <mxGeometry relative="1" as="geometry" />
        </mxCell>
        <mxCell id="jm6-lyp_4xsyJlH1QK8w-41" style="edgeStyle=orthogonalEdgeStyle;rounded=0;orthogonalLoop=1;jettySize=auto;html=1;entryX=0;entryY=0.5;entryDx=0;entryDy=0;entryPerimeter=0;flowAnimation=1;" edge="1" parent="jm6-lyp_4xsyJlH1QK8w-4" source="jm6-lyp_4xsyJlH1QK8w-39" target="jm6-lyp_4xsyJlH1QK8w-37">
          <mxGeometry relative="1" as="geometry">
            <Array as="points">
              <mxPoint x="450" y="279" />
              <mxPoint x="450" y="279" />
            </Array>
          </mxGeometry>
        </mxCell>
        <mxCell id="jm6-lyp_4xsyJlH1QK8w-43" style="edgeStyle=orthogonalEdgeStyle;rounded=0;orthogonalLoop=1;jettySize=auto;html=1;entryX=1;entryY=0.5;entryDx=0;entryDy=0;entryPerimeter=0;flowAnimation=1;" edge="1" parent="jm6-lyp_4xsyJlH1QK8w-4" source="jm6-lyp_4xsyJlH1QK8w-38" target="jm6-lyp_4xsyJlH1QK8w-37">
          <mxGeometry relative="1" as="geometry">
            <Array as="points">
              <mxPoint x="588" y="409" />
              <mxPoint x="588" y="279" />
            </Array>
          </mxGeometry>
        </mxCell>
        <mxCell id="jm6-lyp_4xsyJlH1QK8w-45" style="edgeStyle=orthogonalEdgeStyle;rounded=0;orthogonalLoop=1;jettySize=auto;html=1;entryX=0;entryY=0.5;entryDx=0;entryDy=0;entryPerimeter=0;flowAnimation=1;" edge="1" parent="jm6-lyp_4xsyJlH1QK8w-4" source="jm6-lyp_4xsyJlH1QK8w-37" target="jm6-lyp_4xsyJlH1QK8w-38">
          <mxGeometry relative="1" as="geometry">
            <Array as="points">
              <mxPoint x="470" y="279" />
              <mxPoint x="470" y="409" />
            </Array>
          </mxGeometry>
        </mxCell>
        <mxCell id="jm6-lyp_4xsyJlH1QK8w-48" value="Cloudwatch" style="sketch=0;points=[[0,0,0],[0.25,0,0],[0.5,0,0],[0.75,0,0],[1,0,0],[0,1,0],[0.25,1,0],[0.5,1,0],[0.75,1,0],[1,1,0],[0,0.25,0],[0,0.5,0],[0,0.75,0],[1,0.25,0],[1,0.5,0],[1,0.75,0]];points=[[0,0,0],[0.25,0,0],[0.5,0,0],[0.75,0,0],[1,0,0],[0,1,0],[0.25,1,0],[0.5,1,0],[0.75,1,0],[1,1,0],[0,0.25,0],[0,0.5,0],[0,0.75,0],[1,0.25,0],[1,0.5,0],[1,0.75,0]];outlineConnect=0;fontColor=#232F3E;fillColor=#E7157B;strokeColor=#ffffff;dashed=0;verticalLabelPosition=bottom;verticalAlign=top;align=center;html=1;fontSize=12;fontStyle=0;aspect=fixed;shape=mxgraph.aws4.resourceIcon;resIcon=mxgraph.aws4.cloudwatch_2;" vertex="1" parent="jm6-lyp_4xsyJlH1QK8w-4">
          <mxGeometry x="50" y="617" width="78" height="78" as="geometry" />
        </mxCell>
        <mxCell id="jm6-lyp_4xsyJlH1QK8w-49" value="Clouftrail" style="sketch=0;points=[[0,0,0],[0.25,0,0],[0.5,0,0],[0.75,0,0],[1,0,0],[0,1,0],[0.25,1,0],[0.5,1,0],[0.75,1,0],[1,1,0],[0,0.25,0],[0,0.5,0],[0,0.75,0],[1,0.25,0],[1,0.5,0],[1,0.75,0]];points=[[0,0,0],[0.25,0,0],[0.5,0,0],[0.75,0,0],[1,0,0],[0,1,0],[0.25,1,0],[0.5,1,0],[0.75,1,0],[1,1,0],[0,0.25,0],[0,0.5,0],[0,0.75,0],[1,0.25,0],[1,0.5,0],[1,0.75,0]];outlineConnect=0;fontColor=#232F3E;fillColor=#E7157B;strokeColor=#ffffff;dashed=0;verticalLabelPosition=bottom;verticalAlign=top;align=center;html=1;fontSize=12;fontStyle=0;aspect=fixed;shape=mxgraph.aws4.resourceIcon;resIcon=mxgraph.aws4.cloudtrail;" vertex="1" parent="jm6-lyp_4xsyJlH1QK8w-4">
          <mxGeometry x="150" y="617" width="78" height="78" as="geometry" />
        </mxCell>
        <mxCell id="jm6-lyp_4xsyJlH1QK8w-50" value="x-ray" style="outlineConnect=0;dashed=0;verticalLabelPosition=bottom;verticalAlign=top;align=center;html=1;shape=mxgraph.aws3.x_ray;fillColor=#759C3E;gradientColor=none;" vertex="1" parent="jm6-lyp_4xsyJlH1QK8w-4">
          <mxGeometry x="250" y="610" width="76.5" height="85.5" as="geometry" />
        </mxCell>
        <mxCell id="jm6-lyp_4xsyJlH1QK8w-53" style="edgeStyle=orthogonalEdgeStyle;rounded=0;orthogonalLoop=1;jettySize=auto;html=1;entryX=0;entryY=0.5;entryDx=0;entryDy=0;entryPerimeter=0;flowAnimation=1;" edge="1" parent="jm6-lyp_4xsyJlH1QK8w-4" source="jm6-lyp_4xsyJlH1QK8w-37" target="jm6-lyp_4xsyJlH1QK8w-51">
          <mxGeometry relative="1" as="geometry" />
        </mxCell>
        <mxCell id="jm6-lyp_4xsyJlH1QK8w-54" style="edgeStyle=orthogonalEdgeStyle;rounded=0;orthogonalLoop=1;jettySize=auto;html=1;entryX=0;entryY=0.5;entryDx=0;entryDy=0;entryPerimeter=0;flowAnimation=1;" edge="1" parent="jm6-lyp_4xsyJlH1QK8w-4" source="jm6-lyp_4xsyJlH1QK8w-37" target="jm6-lyp_4xsyJlH1QK8w-52">
          <mxGeometry relative="1" as="geometry" />
        </mxCell>
        <mxCell id="jm6-lyp_4xsyJlH1QK8w-3" value="Actor" style="shape=umlActor;verticalLabelPosition=bottom;verticalAlign=top;html=1;outlineConnect=0;" vertex="1" parent="1">
          <mxGeometry x="170" y="299" width="30" height="60" as="geometry" />
        </mxCell>
        <mxCell id="jm6-lyp_4xsyJlH1QK8w-27" style="edgeStyle=orthogonalEdgeStyle;rounded=0;orthogonalLoop=1;jettySize=auto;html=1;entryX=0;entryY=0.5;entryDx=0;entryDy=0;entryPerimeter=0;flowAnimation=1;" edge="1" parent="1" source="jm6-lyp_4xsyJlH1QK8w-3" target="jm6-lyp_4xsyJlH1QK8w-26">
          <mxGeometry relative="1" as="geometry" />
        </mxCell>
        <mxCell id="jm6-lyp_4xsyJlH1QK8w-34" style="rounded=0;orthogonalLoop=1;jettySize=auto;html=1;entryX=0.5;entryY=0;entryDx=0;entryDy=0;entryPerimeter=0;startArrow=classic;startFill=1;flowAnimation=1;" edge="1" parent="1" source="jm6-lyp_4xsyJlH1QK8w-33" target="jm6-lyp_4xsyJlH1QK8w-3">
          <mxGeometry relative="1" as="geometry">
            <mxPoint x="190" y="360" as="targetPoint" />
            <Array as="points">
              <mxPoint x="260" y="139" />
              <mxPoint x="185" y="139" />
            </Array>
          </mxGeometry>
        </mxCell>
      </root>
    </mxGraphModel>
  </diagram>
</mxfile>
